<svg width="120" height="54" viewBox="0 0 120 54" fill="none" xmlns="http://www.w3.org/2000/svg">
<path d="M0 11.5122C0 11.5122 0.759627 16.4605 9.13693 22.4252C17.5142 28.3898 31.8455 33.3381 31.8455 43.7429V53.2115C31.8455 53.2115 31.8455 48.4344 23.4736 42.2183C17.4447 37.7407 0 30.7971 0 20.9006V11.5122Z" fill="url(#paint0_linear)"/>
<path d="M0 41.6939C0 41.6939 0.759627 36.7456 9.13693 30.781C17.5142 24.8163 31.8455 19.868 31.8455 9.46324V0C31.8455 0 31.8455 4.77709 23.4736 10.9932C17.4447 15.4707 0 22.409 0 32.3056V41.6939Z" fill="url(#paint1_linear)"/>
<path d="M51.8525 15.4922H47.3428L39.1956 24.8805V15.4922H35.5098V38.1687H39.1956V26.5817L48.1667 38.1687H52.9224L42.8707 25.576L51.8525 15.4922Z" fill="#5D5E5E"/>
<path d="M72.9717 38.1685H76.3312V21.7402L72.9717 22.9011V38.1685Z" fill="#5D5E5E"/>
<path d="M116.593 15.4922V31.2143C116.149 30.658 115.726 30.1551 115.325 29.7111C114.923 29.2671 114.522 28.8499 114.132 28.4593L99.7256 15.5082V38.1687H103.117V22.3984C103.449 22.8638 103.797 23.3078 104.16 23.7304C104.529 24.153 104.904 24.5542 105.3 24.9394L120 39.0513V15.4922H116.593Z" fill="#5D5E5E"/>
<path d="M77.2725 38.1687H81.1455L88.2817 22.3716L94.0592 35.3174H89.48L88.2175 38.1687H95.3323H96.2845H99.2161L88.255 15.4922L77.2725 38.1687Z" fill="#5D5E5E"/>
<path d="M74.6575 16.0859C74.0477 16.0859 73.5234 16.3053 73.0847 16.7386C72.6461 17.1719 72.4268 17.6908 72.4268 18.2846C72.4268 18.8944 72.6461 19.4187 73.0847 19.8573C73.5234 20.296 74.0477 20.5153 74.6575 20.5153C75.278 20.5153 75.7969 20.3013 76.2249 19.8734C76.6475 19.4454 76.8615 18.9158 76.8615 18.2846C76.8615 17.6533 76.6529 17.1291 76.2356 16.7118C75.813 16.2946 75.2887 16.0859 74.6575 16.0859Z" fill="#5D5E5E"/>
<path d="M68.8101 26.3784C69.6874 25.3513 70.126 23.5485 70.126 21.7297C70.126 20.6972 69.9334 19.745 69.5536 18.8784C69.1738 18.0118 68.6282 17.3056 67.9274 16.7546C67.3389 16.2999 66.6275 15.9736 65.7983 15.781C64.9691 15.5831 63.7976 15.4868 62.289 15.4868H54.543V38.1633H58.2395L58.2288 28.0207V25.1533V24.383V18.6537H61.4973C65.472 18.6537 66.3439 19.4615 66.3439 22.0613C66.3439 23.2168 66.023 24.3295 65.3864 24.7842C64.7444 25.2389 63.7601 25.164 61.4973 25.164H59.4431L65.9588 38.174H70.126L64.921 27.8602C66.6382 27.6462 67.9327 27.4055 68.8101 26.3784Z" fill="#5D5E5E"/>
<defs>
<linearGradient id="paint0_linear" x1="36.6224" y1="54.531" x2="1.08135" y2="15.8781" gradientUnits="userSpaceOnUse">
<stop stop-color="#00AEEF"/>
<stop offset="1" stop-color="#034EA2"/>
</linearGradient>
<linearGradient id="paint1_linear" x1="0" y1="20.8482" x2="31.846" y2="20.8482" gradientUnits="userSpaceOnUse">
<stop stop-color="#00AEEF"/>
<stop offset="1" stop-color="#034EA2"/>
</linearGradient>
</defs>
</svg>
