<svg width="265" height="321" viewBox="0 0 265 321" fill="none" xmlns="http://www.w3.org/2000/svg">
<g clip-path="url(#clip0_34_259)">
<path d="M25.484 270.414L23.1501 259.298C19.012 257.18 14.7783 255.345 10.4691 253.803L10.1745 258.97L8.97982 253.278C3.63569 251.433 1.90735e-06 250.621 1.90735e-06 250.621C1.90735e-06 250.621 4.90972 273.174 15.2109 290.416L27.2127 292.962L17.8888 294.586C19.1846 296.469 20.5771 298.252 22.0582 299.924C37.0417 316.72 53.7309 324.427 59.334 317.136C64.9372 309.846 57.3328 290.319 42.3492 273.524C37.7042 268.317 31.8691 264.139 26.028 260.849L25.484 270.414Z" fill="#F2F2F2"/>
<path d="M47.6795 258.34L50.4396 247.367C47.804 242.97 44.9651 238.757 41.9365 234.747L39.4731 238.985L40.8863 233.367C37.1005 228.453 34.3357 225.489 34.3357 225.489C34.3357 225.489 28.887 247.861 30.3243 269.051L39.5087 278.723L30.8306 274.292C31.1342 276.713 31.5637 279.109 32.1164 281.465C37.754 305.198 48.7422 322.213 56.6589 319.47C64.5757 316.727 66.4236 295.265 60.786 271.532C59.0384 264.175 55.8314 256.955 52.2391 250.493L47.6795 258.34Z" fill="#F2F2F2"/>
<path d="M184.916 76.0451H183.46V27.8786C183.46 24.2175 182.863 20.5923 181.703 17.2099C180.543 13.8275 178.842 10.7542 176.699 8.16545C174.555 5.57668 172.01 3.52316 169.21 2.12213C166.409 0.721098 163.407 0 160.376 0H75.8763C69.754 0 63.8826 2.9372 59.5535 8.16545C55.2244 13.3937 52.7924 20.4847 52.7924 27.8786V292.128C52.7924 295.79 53.3894 299.415 54.5495 302.797C55.7096 306.18 57.4099 309.253 59.5535 311.842C61.697 314.43 64.2418 316.484 67.0424 317.885C69.8431 319.286 72.8448 320.007 75.8763 320.007H160.376C166.498 320.007 172.369 317.07 176.698 311.841C181.027 306.613 183.459 299.522 183.459 292.128V110.331H184.915L184.916 76.0451Z" fill="#E6E6E6"/>
<path d="M161.307 7.25034H150.278C150.785 8.7523 150.979 10.3819 150.842 11.9955C150.705 13.6091 150.241 15.1573 149.492 16.5035C148.743 17.8498 147.731 18.9529 146.546 19.7155C145.36 20.4782 144.038 20.8771 142.694 20.877H94.2856C92.9425 20.877 91.6201 20.478 90.4348 19.7152C89.2495 18.9525 88.2377 17.8494 87.4885 16.5032C86.7394 15.157 86.2758 13.6089 86.1388 11.9953C86.0017 10.3817 86.1953 8.75224 86.7026 7.25034H76.4007C71.8287 7.25034 67.4439 9.44381 64.211 13.3482C60.9781 17.2526 59.1618 22.5481 59.1618 28.0698V291.936C59.1618 297.458 60.9781 302.753 64.211 306.658C67.4439 310.562 71.8287 312.755 76.4007 312.755H161.307C165.879 312.755 170.264 310.562 173.497 306.658C176.73 302.753 178.546 297.458 178.546 291.936V28.0694C178.546 22.5478 176.73 17.2524 173.497 13.3481C170.264 9.44375 165.879 7.25034 161.307 7.25034Z" fill="white"/>
<path d="M108.035 112.361C108.034 110.517 108.436 108.705 109.2 107.108C109.964 105.511 111.063 104.185 112.386 103.263C111.063 102.341 109.563 101.855 108.036 101.855C106.509 101.855 105.009 102.34 103.686 103.262C102.364 104.184 101.266 105.51 100.502 107.107C99.7385 108.705 99.3365 110.516 99.3365 112.361C99.3365 114.205 99.7385 116.017 100.502 117.614C101.266 119.211 102.364 120.537 103.686 121.459C105.009 122.381 106.509 122.866 108.036 122.866C109.563 122.866 111.063 122.38 112.386 121.458C111.063 120.537 109.964 119.211 109.2 117.614C108.436 116.017 108.034 114.205 108.035 112.361Z" fill="#CCCCCC"/>
<path d="M118.97 112.361C118.97 110.517 119.372 108.705 120.136 107.108C120.9 105.511 121.998 104.185 123.321 103.263C121.999 102.341 120.499 101.855 118.972 101.855C117.445 101.855 115.945 102.34 114.622 103.262C113.299 104.184 112.201 105.51 111.438 107.107C110.674 108.705 110.272 110.516 110.272 112.361C110.272 114.205 110.674 116.017 111.438 117.614C112.201 119.211 113.299 120.537 114.622 121.459C115.945 122.381 117.445 122.866 118.972 122.866C120.499 122.866 121.999 122.38 123.321 121.458C121.998 120.537 120.9 119.211 120.136 117.614C119.372 116.017 118.97 114.205 118.97 112.361Z" fill="#CCCCCC"/>
<path d="M129.657 122.866C134.462 122.866 138.356 118.163 138.356 112.361C138.356 106.559 134.462 101.855 129.657 101.855C124.853 101.855 120.959 106.559 120.959 112.361C120.959 118.163 124.853 122.866 129.657 122.866Z" fill="#027EC9"/>
<path d="M144.195 145.174H93.4969C93.0142 145.173 92.5515 144.941 92.2102 144.529C91.8689 144.117 91.6769 143.558 91.6764 142.975V81.7464C91.6769 81.1635 91.8689 80.6047 92.2102 80.1925C92.5515 79.7803 93.0142 79.5485 93.4969 79.5478H144.195C144.678 79.5485 145.141 79.7803 145.482 80.1925C145.823 80.6047 146.015 81.1635 146.016 81.7464V142.975C146.015 143.558 145.823 144.117 145.482 144.529C145.141 144.941 144.678 145.173 144.195 145.174ZM93.4969 80.4278C93.2073 80.4281 92.9296 80.5672 92.7248 80.8145C92.5201 81.0618 92.4049 81.3971 92.4046 81.7469V142.975C92.4049 143.325 92.5201 143.661 92.7248 143.908C92.9296 144.155 93.2073 144.294 93.4969 144.295H144.195C144.485 144.294 144.762 144.155 144.967 143.908C145.172 143.661 145.287 143.325 145.287 142.975V81.7469C145.287 81.3971 145.172 81.0618 144.967 80.8145C144.762 80.5672 144.485 80.4281 144.195 80.4278H93.4969Z" fill="#CCCCCC"/>
<path d="M155.515 192.108H77.7594V192.988H155.515V192.108Z" fill="#CCCCCC"/>
<path d="M80.215 186.617C81.5711 186.617 82.6705 185.289 82.6705 183.652C82.6705 182.014 81.5711 180.686 80.215 180.686C78.8588 180.686 77.7594 182.014 77.7594 183.652C77.7594 185.289 78.8588 186.617 80.215 186.617Z" fill="#027EC9"/>
<path d="M155.515 221.763H77.7594V222.642H155.515V221.763Z" fill="#CCCCCC"/>
<path d="M80.215 216.272C81.5711 216.272 82.6705 214.944 82.6705 213.306C82.6705 211.669 81.5711 210.341 80.215 210.341C78.8588 210.341 77.7594 211.669 77.7594 213.306C77.7594 214.944 78.8588 216.272 80.215 216.272Z" fill="#027EC9"/>
<path d="M154.092 255.532H129.519C129.095 255.531 128.688 255.327 128.388 254.965C128.088 254.603 127.919 254.111 127.918 253.598V243.197C127.919 242.684 128.088 242.193 128.388 241.83C128.688 241.468 129.095 241.264 129.519 241.263H154.092C154.517 241.264 154.924 241.468 155.224 241.83C155.524 242.193 155.693 242.684 155.693 243.197V253.598C155.693 254.111 155.524 254.603 155.224 254.965C154.924 255.327 154.517 255.531 154.092 255.532Z" fill="#027EC9"/>
<path d="M88.2249 186.617C89.5811 186.617 90.6805 185.289 90.6805 183.652C90.6805 182.014 89.5811 180.686 88.2249 180.686C86.8688 180.686 85.7694 182.014 85.7694 183.652C85.7694 185.289 86.8688 186.617 88.2249 186.617Z" fill="#027EC9"/>
<path d="M96.2349 186.617C97.5911 186.617 98.6905 185.289 98.6905 183.652C98.6905 182.014 97.5911 180.686 96.2349 180.686C94.8787 180.686 93.7793 182.014 93.7793 183.652C93.7793 185.289 94.8787 186.617 96.2349 186.617Z" fill="#027EC9"/>
<path d="M88.2249 216.272C89.5811 216.272 90.6805 214.944 90.6805 213.306C90.6805 211.669 89.5811 210.341 88.2249 210.341C86.8688 210.341 85.7694 211.669 85.7694 213.306C85.7694 214.944 86.8688 216.272 88.2249 216.272Z" fill="#027EC9"/>
<path d="M96.2349 216.272C97.5911 216.272 98.6905 214.944 98.6905 213.306C98.6905 211.669 97.5911 210.341 96.2349 210.341C94.8787 210.341 93.7793 211.669 93.7793 213.306C93.7793 214.944 94.8787 216.272 96.2349 216.272Z" fill="#027EC9"/>
<path d="M264.01 321H8.56712C8.02029 321 7.57734 320.765 7.57734 320.477C7.57734 320.188 8.02029 319.953 8.56712 319.953H264.01C264.557 319.953 265 320.187 265 320.477C265 320.766 264.557 321 264.01 321Z" fill="#3F3D56"/>
<path d="M200.899 210.309C201.074 210.406 201.241 210.519 201.401 210.647L217.358 202.422L217.928 197.345L224.304 197.298L223.927 208.942L202.865 215.669C202.821 215.845 202.768 216.019 202.706 216.188C202.402 216.973 201.912 217.631 201.299 218.081C200.685 218.531 199.975 218.751 199.259 218.715C198.542 218.68 197.849 218.389 197.269 217.879C196.688 217.37 196.245 216.665 195.996 215.852C195.746 215.04 195.7 214.156 195.865 213.313C196.03 212.469 196.397 211.703 196.921 211.111C197.445 210.519 198.102 210.127 198.81 209.984C199.517 209.841 200.244 209.955 200.899 210.309Z" fill="#FFB8B8"/>
<path d="M226.623 315.82H222.261L220.186 295.501L226.624 295.502L226.623 315.82Z" fill="#FFB8B8"/>
<path d="M219.146 314.315H227.558V320.711H213.849C213.849 319.015 214.407 317.388 215.4 316.188C216.394 314.989 217.741 314.315 219.146 314.315Z" fill="#2F2E41"/>
<path d="M243.586 314.331L239.246 314.848L235.531 294.873L241.937 294.111L243.586 314.331Z" fill="#FFB8B8"/>
<path d="M236.023 313.719L244.395 312.723L244.914 319.089L231.271 320.711C231.203 319.876 231.272 319.032 231.474 318.228C231.676 317.424 232.007 316.676 232.448 316.027C232.889 315.377 233.432 314.839 234.046 314.443C234.659 314.047 235.331 313.801 236.023 313.719Z" fill="#2F2E41"/>
<path d="M227.837 175.795C232.663 175.795 236.575 171.07 236.575 165.242C236.575 159.413 232.663 154.688 227.837 154.688C223.011 154.688 219.099 159.413 219.099 165.242C219.099 171.07 223.011 175.795 227.837 175.795Z" fill="#FFB8B8"/>
<path d="M221.287 311.711C220.912 311.712 220.549 311.553 220.261 311.263C219.974 310.972 219.781 310.568 219.716 310.122C217.458 294.987 210.079 245.497 209.902 244.126C209.898 244.095 209.896 244.063 209.896 244.031V240.341C209.896 240.206 209.931 240.075 209.996 239.966L210.971 238.317C211.017 238.238 211.078 238.172 211.148 238.126C211.219 238.079 211.297 238.053 211.378 238.049C216.936 237.734 235.138 236.812 236.017 238.138C236.9 239.472 236.588 243.512 236.517 244.309L236.52 244.392L244.698 307.552C244.762 308.055 244.659 308.569 244.412 308.982C244.165 309.395 243.793 309.674 243.376 309.758L238.269 310.774C237.888 310.848 237.499 310.755 237.17 310.511C236.842 310.267 236.598 309.889 236.481 309.445C234.901 303.349 229.604 282.841 227.768 274.905C227.757 274.855 227.73 274.812 227.694 274.783C227.658 274.754 227.615 274.743 227.572 274.75C227.529 274.757 227.49 274.783 227.462 274.823C227.434 274.862 227.419 274.913 227.419 274.965C227.511 282.53 227.733 301.83 227.809 308.495L227.817 309.213C227.821 309.699 227.673 310.169 227.403 310.53C227.134 310.891 226.762 311.117 226.361 311.162L221.436 311.703C221.386 311.708 221.336 311.711 221.287 311.711Z" fill="#2F2E41"/>
<path d="M222.291 179.944C220.766 181.039 219.854 183.051 219.33 185.098C218.361 188.889 217.777 192.807 217.593 196.768L217.039 208.627L210.189 240.066C216.126 246.134 219.551 244.755 227.544 239.792C235.536 234.829 236.45 241.447 236.45 241.447L238.048 214.696L240.331 185.464C239.819 184.719 239.239 184.045 238.602 183.456C236.491 181.474 234.035 180.096 231.42 179.426C228.804 178.757 226.097 178.813 223.502 179.591L222.291 179.944Z" fill="#027EC9"/>
<path d="M220.066 216.659C220.251 216.742 220.429 216.844 220.6 216.961L236.378 207.424L236.64 202.257L243.149 201.715L243.497 213.493L222.412 221.914C222.24 222.806 221.847 223.614 221.286 224.229C220.724 224.845 220.021 225.239 219.269 225.361C218.518 225.482 217.753 225.324 217.078 224.907C216.403 224.491 215.848 223.836 215.488 223.03C215.129 222.224 214.98 221.305 215.064 220.395C215.147 219.484 215.458 218.626 215.955 217.935C216.452 217.243 217.112 216.751 217.846 216.523C218.58 216.295 219.355 216.342 220.066 216.659Z" fill="#FFB8B8"/>
<path d="M240.217 185.598C244.099 187.253 244.783 205.18 244.783 205.18C240.216 202.146 234.735 207.11 234.735 207.11C234.735 207.11 233.594 202.422 232.223 196.355C231.81 194.648 231.76 192.843 232.08 191.107C232.399 189.371 233.077 187.761 234.05 186.427C234.05 186.427 236.335 183.942 240.217 185.598Z" fill="#027EC9"/>
<path d="M235.672 168.032C234.584 166.98 233.098 168.893 233.098 168.893L232.227 159.425C232.227 159.425 226.783 160.213 223.299 159.163C219.815 158.112 219.271 162.976 219.271 162.976C219.091 161.011 219.055 159.031 219.162 157.059C219.38 154.692 222.211 152.325 227.219 150.747C232.227 149.169 234.84 156.007 234.84 156.007C238.324 158.111 236.761 169.084 235.672 168.032Z" fill="#2F2E41"/>
</g>
<defs>
<clipPath id="clip0_34_259">
<rect width="265" height="321" fill="white"/>
</clipPath>
</defs>
</svg>
