<svg width="295" height="258" viewBox="0 0 295 258" fill="none" xmlns="http://www.w3.org/2000/svg">
<g clip-path="url(#clip0_62_146)">
<path d="M295 61.3104H293.581V22.4761C293.581 16.5151 291.207 10.7982 286.981 6.5831C282.755 2.36801 277.023 2.9319e-09 271.047 2.93188e-09H188.56C185.601 -4.76694e-05 182.671 0.581267 179.937 1.71075C177.203 2.84024 174.719 4.49578 172.626 6.58284C170.534 8.66991 168.874 11.1476 167.742 13.8745C166.609 16.6015 166.026 19.5241 166.026 22.4758V235.524C166.026 241.485 168.4 247.202 172.626 251.417C176.852 255.632 182.584 258 188.56 258H271.046C277.022 258 282.754 255.632 286.98 251.417C291.205 247.202 293.58 241.485 293.58 235.524V88.9534H294.999L295 61.3104Z" fill="#3F3D56"/>
<path d="M288.985 20.9707V237.029C288.984 241.548 287.184 245.883 283.981 249.079C280.777 252.275 276.432 254.071 271.901 254.073H187.722C183.189 254.074 178.841 252.278 175.635 249.082C172.429 245.886 170.628 241.55 170.626 237.029V20.9707C170.628 16.4495 172.429 12.114 175.635 8.91771C178.841 5.72143 183.188 3.92615 187.721 3.92673H197.932C197.431 5.15662 197.24 6.49053 197.377 7.81122C197.513 9.13192 197.973 10.3989 198.715 11.501C199.457 12.603 200.46 13.5062 201.634 14.1313C202.809 14.7564 204.119 15.0841 205.45 15.0858H253.442C254.773 15.0841 256.083 14.7564 257.258 14.1313C258.432 13.5062 259.434 12.603 260.177 11.501C260.919 10.3989 261.379 9.13192 261.515 7.81122C261.652 6.49053 261.461 5.15662 260.96 3.92673H271.898C276.429 3.9275 280.774 5.72299 283.978 8.91848C287.183 12.114 288.983 16.4479 288.985 20.9674V20.9707Z" fill="white"/>
<path d="M230.708 107.407C221.124 107.411 211.931 103.617 205.151 96.8599C198.371 90.1029 194.56 80.9363 194.556 71.3765V71.3446C194.556 71.2691 194.556 71.1896 194.56 71.1141C194.669 51.366 210.888 35.2844 230.708 35.2844C240.297 35.2839 249.493 39.0826 256.273 45.845C263.053 52.6073 266.863 61.7794 266.863 71.3433C266.864 80.9072 263.055 90.0797 256.276 96.8428C249.496 103.606 240.301 107.406 230.712 107.406H230.708V107.407ZM230.708 36.0431C221.365 36.0639 212.406 39.7618 205.78 46.3332C199.154 52.9046 195.396 61.8186 195.321 71.1384C195.317 71.219 195.317 71.2836 195.317 71.3449C195.317 78.3278 197.392 85.1542 201.28 90.9607C205.169 96.7673 210.697 101.293 217.164 103.966C223.631 106.639 230.748 107.339 237.615 105.978C244.481 104.616 250.788 101.255 255.739 96.3176C260.69 91.3806 264.062 85.09 265.429 78.2414C266.795 71.3929 266.095 64.2939 263.417 57.8422C260.739 51.3905 256.203 45.8759 250.382 41.9957C244.562 38.1155 237.719 36.044 230.718 36.0431H230.708Z" fill="#E6E6E6"/>
<path d="M268.093 145.321H193.29C192.922 145.321 192.57 145.175 192.311 144.916C192.051 144.657 191.905 144.306 191.904 143.939V125.431C191.905 125.065 192.051 124.714 192.311 124.455C192.57 124.196 192.922 124.05 193.29 124.05H268.093C268.46 124.05 268.812 124.196 269.072 124.455C269.331 124.714 269.477 125.065 269.478 125.431V143.94C269.477 144.306 269.331 144.657 269.072 144.916C268.812 145.175 268.46 145.321 268.093 145.321V145.321ZM193.29 124.602C193.069 124.602 192.858 124.69 192.702 124.845C192.546 125.001 192.459 125.212 192.458 125.431V143.94C192.459 144.16 192.546 144.37 192.702 144.526C192.858 144.681 193.069 144.769 193.29 144.769H268.093C268.313 144.769 268.525 144.681 268.68 144.526C268.836 144.37 268.924 144.16 268.924 143.94V125.431C268.924 125.212 268.836 125.001 268.68 124.845C268.525 124.69 268.313 124.602 268.093 124.602H193.29Z" fill="#E6E6E6"/>
<path d="M216.423 130.817C216.166 130.817 215.919 130.919 215.737 131.1C215.555 131.281 215.453 131.527 215.453 131.784C215.453 132.04 215.555 132.287 215.737 132.468C215.919 132.649 216.166 132.751 216.423 132.751H262.136C262.263 132.756 262.39 132.736 262.51 132.692C262.629 132.648 262.739 132.581 262.832 132.494C262.925 132.408 263.001 132.304 263.054 132.189C263.107 132.073 263.137 131.948 263.142 131.822C263.147 131.695 263.127 131.568 263.083 131.449C263.038 131.33 262.971 131.22 262.885 131.127C262.798 131.034 262.694 130.959 262.578 130.906C262.462 130.852 262.337 130.823 262.21 130.818C262.196 130.817 262.182 130.817 262.167 130.817H216.423V130.817Z" fill="#E6E6E6"/>
<path d="M216.423 136.62C216.166 136.62 215.919 136.722 215.737 136.903C215.555 137.085 215.453 137.331 215.453 137.587C215.453 137.844 215.555 138.09 215.737 138.271C215.919 138.452 216.166 138.554 216.423 138.554H262.136C262.263 138.559 262.39 138.539 262.51 138.495C262.629 138.451 262.739 138.384 262.832 138.297C262.925 138.211 263.001 138.107 263.054 137.992C263.107 137.876 263.137 137.752 263.142 137.625C263.147 137.498 263.127 137.371 263.083 137.252C263.038 137.133 262.971 137.023 262.885 136.93C262.798 136.837 262.694 136.762 262.578 136.709C262.462 136.656 262.337 136.626 262.21 136.621C262.196 136.62 262.182 136.62 262.167 136.62L216.423 136.62Z" fill="#E6E6E6"/>
<path d="M268.093 176.272H193.29C192.922 176.271 192.57 176.126 192.311 175.867C192.051 175.608 191.905 175.256 191.904 174.89V156.382C191.905 156.016 192.051 155.665 192.311 155.406C192.57 155.147 192.922 155.001 193.29 155H268.093C268.46 155.001 268.812 155.147 269.072 155.406C269.331 155.665 269.477 156.016 269.478 156.382V174.89C269.477 175.257 269.331 175.608 269.072 175.867C268.812 176.126 268.46 176.271 268.093 176.272ZM193.29 155.553C193.069 155.553 192.858 155.641 192.702 155.796C192.546 155.951 192.459 156.162 192.458 156.382V174.89C192.459 175.11 192.546 175.321 192.702 175.476C192.858 175.632 193.069 175.719 193.29 175.72H268.093C268.313 175.719 268.525 175.632 268.68 175.476C268.836 175.321 268.924 175.11 268.924 174.89V156.382C268.924 156.162 268.836 155.951 268.68 155.796C268.525 155.641 268.313 155.553 268.093 155.553H193.29Z" fill="#E6E6E6"/>
<path d="M216.423 161.766C216.166 161.766 215.919 161.868 215.737 162.049C215.555 162.231 215.453 162.477 215.453 162.733C215.453 162.99 215.555 163.236 215.737 163.417C215.919 163.599 216.166 163.7 216.423 163.7H262.136C262.389 163.699 262.632 163.599 262.812 163.421C262.993 163.243 263.096 163.002 263.1 162.749C263.104 162.496 263.009 162.252 262.835 162.068C262.66 161.884 262.421 161.776 262.167 161.766L216.423 161.766Z" fill="#E6E6E6"/>
<path d="M216.423 167.571C216.166 167.571 215.919 167.673 215.737 167.854C215.555 168.035 215.453 168.281 215.453 168.538C215.453 168.794 215.555 169.04 215.737 169.222C215.919 169.403 216.166 169.505 216.423 169.505H262.136C262.389 169.504 262.632 169.403 262.812 169.225C262.993 169.048 263.096 168.806 263.1 168.553C263.104 168.301 263.009 168.056 262.835 167.873C262.66 167.689 262.421 167.581 262.167 167.571L216.423 167.571Z" fill="#E6E6E6"/>
<path d="M268.093 207.222H193.29C192.922 207.221 192.57 207.076 192.311 206.817C192.051 206.558 191.905 206.206 191.904 205.84V187.332C191.905 186.966 192.051 186.615 192.311 186.356C192.57 186.097 192.922 185.951 193.29 185.95H268.093C268.46 185.951 268.812 186.097 269.072 186.356C269.331 186.615 269.477 186.966 269.478 187.332V205.84C269.477 206.207 269.331 206.558 269.072 206.817C268.812 207.076 268.46 207.222 268.093 207.222V207.222ZM193.29 186.503C193.069 186.503 192.858 186.591 192.702 186.746C192.546 186.901 192.459 187.112 192.458 187.332V205.84C192.459 206.06 192.546 206.271 192.702 206.427C192.858 206.582 193.069 206.669 193.29 206.67H268.093C268.313 206.669 268.525 206.582 268.68 206.427C268.836 206.271 268.924 206.06 268.924 205.84V187.332C268.924 187.112 268.836 186.901 268.68 186.746C268.525 186.591 268.313 186.503 268.093 186.503H193.29Z" fill="#E6E6E6"/>
<path d="M216.423 192.717C216.166 192.717 215.919 192.819 215.737 193C215.555 193.182 215.453 193.428 215.453 193.684C215.453 193.941 215.555 194.187 215.737 194.368C215.919 194.55 216.166 194.652 216.423 194.652H262.136C262.263 194.656 262.39 194.636 262.51 194.592C262.629 194.548 262.739 194.481 262.832 194.395C262.925 194.308 263.001 194.204 263.054 194.089C263.107 193.974 263.137 193.849 263.142 193.722C263.147 193.595 263.127 193.468 263.083 193.349C263.038 193.23 262.971 193.121 262.885 193.027C262.798 192.934 262.694 192.859 262.578 192.806C262.462 192.753 262.337 192.723 262.21 192.718C262.196 192.718 262.182 192.717 262.167 192.717L216.423 192.717Z" fill="#E6E6E6"/>
<path d="M216.423 198.521C216.166 198.521 215.919 198.623 215.737 198.804C215.555 198.985 215.453 199.231 215.453 199.488C215.453 199.744 215.555 199.99 215.737 200.172C215.919 200.353 216.166 200.455 216.423 200.455H262.136C262.263 200.46 262.39 200.44 262.51 200.396C262.629 200.352 262.739 200.285 262.832 200.198C262.925 200.112 263.001 200.008 263.054 199.893C263.107 199.777 263.137 199.652 263.142 199.525C263.147 199.399 263.127 199.272 263.083 199.153C263.038 199.034 262.971 198.924 262.885 198.831C262.798 198.738 262.694 198.663 262.578 198.609C262.462 198.556 262.337 198.527 262.21 198.522C262.196 198.521 262.182 198.521 262.167 198.521L216.423 198.521Z" fill="#E6E6E6"/>
<path d="M242.132 70.4697H231.589V59.9528H229.831V70.4697H219.288V72.2224H229.831V82.7393H231.589V72.2224H242.132V70.4697Z" fill="#027EC9"/>
<path d="M80.2213 202.721C80.2213 202.721 71.6002 212.139 70.3687 233.841C69.1371 255.543 68.7266 258 68.7266 258H99.5159L105.26 243.26L111.83 257.999H140.977C140.977 257.999 144.261 212.956 140.977 211.728C137.693 210.499 80.2213 202.721 80.2213 202.721Z" fill="#2F2E41"/>
<path d="M121.478 91.9566C129.639 91.9566 136.256 85.3568 136.256 77.2156C136.256 69.0744 129.639 62.4746 121.478 62.4746C113.316 62.4746 106.699 69.0744 106.699 77.2156C106.699 85.3568 113.316 91.9566 121.478 91.9566Z" fill="#FFB8B8"/>
<path d="M185.314 203.132L162.735 162.183L149.597 140.891L165.198 133.929L173.819 150.718C173.819 150.718 185.314 167.506 188.187 181.429C191.06 195.352 193.934 201.903 193.934 201.903L185.314 203.132Z" fill="#FFB8B8"/>
<path d="M60.924 191.255L94.5867 161.773L92.9464 138.023H83.5043L80.6292 150.307L53.5349 185.932L60.924 191.255Z" fill="#FFB8B8"/>
<path d="M104.441 99.1236C104.441 99.1236 116.633 104.222 125.725 97.9874C125.725 97.9874 147.956 101.581 149.187 102.809C150.419 104.037 147.956 140.889 147.956 140.889L143.03 161.774C143.03 161.774 150.009 193.713 139.746 201.902L141.799 212.958C141.799 212.958 96.231 216.234 78.1679 205.178L81.4514 194.122L90.0724 159.316L84.7356 110.999C84.7356 110.999 88.8394 99.9426 104.441 99.1236Z" fill="#E4E4E4"/>
<path d="M138.719 104.651L149.393 103.014C149.393 103.014 154.73 103.833 159.656 114.07C164.582 124.307 169.919 137.82 169.919 137.82L151.446 146.01L136.257 122.26L138.719 104.651Z" fill="#E4E4E4"/>
<path d="M87.1994 108.951L84.7363 110.998C84.7363 110.998 81.4521 122.873 81.4521 131.062V142.118L96.231 143.756L87.1994 108.951Z" fill="#E4E4E4"/>
<path d="M106.703 81.2164C106.703 81.2164 104.694 79.0525 104.897 76.3437C105.032 74.8028 104.933 73.2505 104.604 71.7388C104.604 71.7388 105.233 67.3053 106.162 64.7352C107.09 62.165 106.307 61.2709 110.298 59.8679C114.289 58.4648 111.749 53.3913 123.514 57.4356C123.962 57.8864 124.533 58.1948 125.156 58.3219C125.779 58.4491 126.426 58.3893 127.015 58.1501C129.188 57.3565 130.497 60.3332 130.497 60.3332C130.497 60.3332 131.852 59.2242 132.612 60.3772C133.372 61.5301 137.049 58.9026 138.399 67.2893C139.748 75.6761 135.118 83.1553 135.118 83.1553C135.118 83.1553 134.468 69.7346 126.827 69.491C119.186 69.2474 110.544 66.3607 109.473 72.0122C108.401 77.6636 106.703 81.2164 106.703 81.2164Z" fill="#2F2E41"/>
<path d="M55.5391 197.527C59.0566 197.527 61.9081 194.683 61.9081 191.174C61.9081 187.666 59.0566 184.821 55.5391 184.821C52.0216 184.821 49.1702 187.666 49.1702 191.174C49.1702 194.683 52.0216 197.527 55.5391 197.527Z" fill="#FFB8B8"/>
<path d="M9.62439 234.081L114.518 213.196L105.752 169.395L0.858521 190.279L9.62439 234.081Z" fill="white"/>
<path d="M115.376 213.768L9.05193 234.939L0 189.708L106.325 168.538L115.376 213.768ZM10.1976 233.226L113.66 212.626L105.179 170.25L1.71707 190.851L10.1976 233.226Z" fill="#E4E4E4"/>
<path d="M43.8252 220.159L43.7822 220.177C43.4401 220.317 43.0934 220.45 42.7373 220.567C42.6176 220.607 42.4935 220.645 42.3732 220.681C42.253 220.717 42.1287 220.756 42.0042 220.789C41.8016 220.848 41.5942 220.899 41.3856 220.947C41.2963 220.97 41.2024 220.99 41.1123 221.009L41.0582 221.02C40.9464 221.044 40.8347 221.068 40.7222 221.088L40.4312 221.138C40.3771 221.15 40.3237 221.157 40.271 221.165C37.9578 221.527 35.5924 221.361 33.3527 220.68C31.113 219.999 29.0573 218.82 27.3402 217.232C25.623 215.644 24.2892 213.689 23.4389 211.513C22.5886 209.336 22.244 206.996 22.4311 204.668C22.6181 202.34 23.332 200.085 24.5188 198.071C25.7057 196.058 27.3348 194.34 29.2835 193.045C31.2323 191.75 33.4499 190.913 35.7698 190.596C38.0897 190.279 40.4513 190.491 42.6772 191.216C40.6627 193.031 39.1619 195.343 38.3253 197.919C37.4886 200.495 37.3455 203.245 37.9102 205.894C38.4749 208.542 39.7277 210.996 41.5429 213.01C43.3582 215.023 45.6721 216.525 48.2528 217.366C46.9479 218.542 45.4507 219.487 43.8262 220.16L43.8252 220.159Z" fill="#027EC9"/>
<path d="M65.9682 212.302C66.6452 212.64 67.3466 212.928 68.0667 213.161C66.0508 214.983 63.5872 216.24 60.9263 216.805L60.7316 216.846C58.4086 217.311 56.0096 217.238 53.7192 216.634C51.4287 216.029 49.3079 214.908 47.52 213.357C45.7321 211.806 44.3246 209.867 43.406 207.689C42.4874 205.51 42.082 203.151 42.2212 200.791C42.3603 198.432 43.0403 196.136 44.2087 194.08C45.377 192.024 47.0027 190.263 48.9606 188.932C50.9185 187.601 53.1564 186.736 55.5022 186.403C57.8479 186.07 60.2389 186.279 62.4912 187.012C60.6134 188.696 59.1774 190.812 58.3088 193.176C57.4403 195.541 57.1655 198.082 57.5085 200.576C57.8515 203.071 58.8019 205.444 60.2766 207.488C61.7513 209.532 63.7054 211.185 65.9682 212.302Z" fill="#027EC9"/>
<path d="M92.6637 194.279C93.301 197.267 93.0354 200.377 91.9006 203.216C90.7658 206.054 88.8127 208.493 86.2883 210.224C83.764 211.954 80.7817 212.9 77.7187 212.94C74.6556 212.981 71.6493 212.114 69.08 210.45C66.5107 208.786 64.4937 206.4 63.2842 203.593C62.0746 200.785 61.7268 197.683 62.2847 194.679C62.8426 191.675 64.2811 188.903 66.4184 186.714C68.5557 184.525 71.2958 183.017 74.2921 182.381C76.2816 181.959 78.3349 181.932 80.3349 182.302C82.3348 182.671 84.2422 183.43 85.9482 184.535C87.6541 185.64 89.1253 187.069 90.2775 188.741C91.4298 190.412 92.2406 192.294 92.6637 194.279Z" fill="#027EC9"/>
<path d="M86.1777 208.065C86.3241 208.749 86.4006 209.445 86.4061 210.145C84.7006 211.335 82.7723 212.172 80.7361 212.604C78.6998 213.036 76.5973 213.054 74.5536 212.659C74.2733 212.018 74.0589 211.35 73.9136 210.666C73.1557 207.112 74.3304 203.722 76.6151 202.189C75.5279 201.982 74.5459 201.406 73.836 200.559C73.126 199.712 72.7317 198.646 72.7201 197.542C72.7085 196.438 73.0802 195.364 73.7723 194.503C74.4643 193.641 75.4339 193.045 76.5165 192.815C77.5992 192.585 78.7282 192.736 79.7118 193.243C80.6955 193.749 81.4733 194.579 81.9131 195.592C82.3529 196.605 82.4276 197.739 82.1247 198.801C81.8217 199.863 81.1597 200.787 80.251 201.418C82.9646 201.891 85.4198 204.51 86.1777 208.065Z" fill="white"/>
<path d="M65.9684 212.303L65.9784 212.35C66.1087 213.208 66.1677 214.076 66.1548 214.945C64.5504 216.067 62.7571 216.391 60.7319 216.847L60.5372 216.889C58.5012 217.323 56.3981 217.342 54.3546 216.944C54.3269 216.885 54.3028 216.825 54.2823 216.764C54.0355 216.179 53.8455 215.572 53.715 214.951C52.9571 211.397 54.1318 208.007 56.4166 206.474C55.3292 206.267 54.3472 205.691 53.6371 204.845C52.927 203.998 52.5326 202.932 52.521 201.828C52.5094 200.724 52.8812 199.65 53.5734 198.788C54.2655 197.926 55.2352 197.33 56.318 197.101C56.6849 197.022 57.06 196.988 57.4351 196.999C57.1354 200.112 57.7909 203.243 59.3149 205.976C60.8388 208.709 63.1593 210.915 65.9689 212.303L65.9684 212.303Z" fill="white"/>
<path d="M46.5376 216.692C46.6606 217.307 46.7247 217.934 46.729 218.561C45.5032 219.419 44.1587 220.095 42.7379 220.566C42.6181 220.606 42.4941 220.644 42.3738 220.681C42.2536 220.717 42.1293 220.755 42.0048 220.789C41.8022 220.847 41.5948 220.898 41.3862 220.946C41.3436 220.959 41.2969 220.969 41.2535 220.978L41.0588 221.02C40.9471 221.043 40.8353 221.067 40.7228 221.087L40.4318 221.138C40.3777 221.149 40.3243 221.157 40.2716 221.164C38.482 221.453 36.6554 221.423 34.8764 221.075C34.8717 221.068 34.8686 221.06 34.8674 221.051C34.8427 221.001 34.8215 220.949 34.8041 220.895C34.5572 220.31 34.3672 219.703 34.2368 219.083C33.4789 215.528 34.6536 212.139 36.9383 210.605C35.851 210.399 34.8689 209.823 34.1588 208.976C33.4487 208.129 33.0544 207.063 33.0427 205.959C33.0311 204.855 33.403 203.781 34.0951 202.919C34.7872 202.058 35.757 201.461 36.8397 201.232C37.0995 201.177 37.3636 201.143 37.6291 201.132C37.3062 204.328 37.9909 207.544 39.5879 210.333C41.1848 213.122 43.6144 215.345 46.5379 216.691L46.5376 216.692Z" fill="white"/>
<path d="M206.121 137.462C206.121 137.811 206.086 138.16 206.016 138.503C205.057 138.908 204.027 139.117 202.986 139.117C201.945 139.117 200.915 138.908 199.956 138.503C199.886 138.16 199.851 137.811 199.851 137.462C199.851 135.644 200.779 134.109 202.057 133.595C201.546 133.381 201.126 132.998 200.867 132.51C200.608 132.022 200.526 131.459 200.636 130.918C200.745 130.377 201.039 129.89 201.468 129.541C201.896 129.191 202.432 129 202.986 129C203.539 129 204.076 129.191 204.504 129.541C204.932 129.89 205.226 130.377 205.336 130.918C205.445 131.459 205.364 132.022 205.105 132.51C204.846 132.998 204.425 133.381 203.915 133.595C205.193 134.109 206.121 135.644 206.121 137.462Z" fill="#027EC9"/>
<path d="M206.121 169.039C206.121 169.389 206.086 169.738 206.016 170.081C205.057 170.486 204.027 170.695 202.986 170.695C201.945 170.695 200.915 170.486 199.956 170.081C199.886 169.738 199.851 169.389 199.851 169.039C199.851 167.222 200.779 165.686 202.057 165.173C201.546 164.959 201.126 164.575 200.867 164.087C200.608 163.599 200.526 163.037 200.636 162.496C200.745 161.955 201.039 161.468 201.468 161.118C201.896 160.769 202.432 160.578 202.986 160.578C203.539 160.578 204.076 160.769 204.504 161.118C204.932 161.468 205.226 161.955 205.336 162.496C205.445 163.037 205.364 163.599 205.105 164.087C204.846 164.575 204.425 164.959 203.915 165.173C205.193 165.686 206.121 167.222 206.121 169.039Z" fill="#027EC9"/>
<path d="M206.121 199.989C206.121 200.339 206.086 200.687 206.016 201.03C205.057 201.436 204.027 201.644 202.986 201.644C201.945 201.644 200.915 201.436 199.956 201.03C199.886 200.687 199.851 200.339 199.851 199.989C199.851 198.172 200.779 196.636 202.057 196.122C201.546 195.908 201.126 195.525 200.867 195.037C200.608 194.549 200.526 193.987 200.636 193.445C200.745 192.904 201.039 192.418 201.468 192.068C201.896 191.718 202.432 191.527 202.986 191.527C203.539 191.527 204.076 191.718 204.504 192.068C204.932 192.418 205.226 192.904 205.336 193.445C205.445 193.987 205.364 194.549 205.105 195.037C204.846 195.525 204.425 195.908 203.915 196.122C205.193 196.636 206.121 198.172 206.121 199.989Z" fill="#027EC9"/>
<path d="M190.015 210.596C193.231 210.596 195.838 207.995 195.838 204.787C195.838 201.579 193.231 198.979 190.015 198.979C186.799 198.979 184.192 201.579 184.192 204.787C184.192 207.995 186.799 210.596 190.015 210.596Z" fill="#FFB8B8"/>
</g>
<defs>
<clipPath id="clip0_62_146">
<rect width="295" height="258" fill="white"/>
</clipPath>
</defs>
</svg>
